<mxfile host="Electron" agent="Mozilla/5.0 (Windows NT 10.0; Win64; x64) AppleWebKit/537.36 (KHTML, like Gecko) draw.io/28.1.2 Chrome/138.0.7204.243 Electron/37.4.0 Safari/537.36" version="28.1.2">
  <diagram name="Page-1" id="BXACPQCS-xIfbanNCWVC">
    <mxGraphModel dx="1797" dy="656" grid="1" gridSize="10" guides="1" tooltips="1" connect="1" arrows="1" fold="1" page="1" pageScale="1" pageWidth="850" pageHeight="1100" math="0" shadow="0">
      <root>
        <mxCell id="0" />
        <mxCell id="1" parent="0" />
        <mxCell id="1mVYOBVDLo1fgl-eQnJa-1" value="1 , 2, 3, ..." style="text;html=1;align=center;verticalAlign=middle;resizable=0;points=[];autosize=1;strokeColor=none;fillColor=none;" vertex="1" parent="1">
          <mxGeometry x="85" y="350" width="80" height="30" as="geometry" />
        </mxCell>
        <mxCell id="1mVYOBVDLo1fgl-eQnJa-2" value="Age Generalization Hierarchy" style="text;html=1;align=center;verticalAlign=middle;resizable=0;points=[];autosize=1;strokeColor=none;fillColor=none;" vertex="1" parent="1">
          <mxGeometry x="210" y="20" width="180" height="30" as="geometry" />
        </mxCell>
        <mxCell id="1mVYOBVDLo1fgl-eQnJa-4" value="0 - 4" style="text;html=1;align=center;verticalAlign=middle;resizable=0;points=[];autosize=1;strokeColor=none;fillColor=none;" vertex="1" parent="1">
          <mxGeometry x="30" y="280" width="50" height="30" as="geometry" />
        </mxCell>
        <mxCell id="1mVYOBVDLo1fgl-eQnJa-5" value="5 - 9" style="text;html=1;align=center;verticalAlign=middle;resizable=0;points=[];autosize=1;strokeColor=none;fillColor=none;" vertex="1" parent="1">
          <mxGeometry x="100" y="280" width="50" height="30" as="geometry" />
        </mxCell>
        <mxCell id="1mVYOBVDLo1fgl-eQnJa-6" value="10 - 14" style="text;html=1;align=center;verticalAlign=middle;resizable=0;points=[];autosize=1;strokeColor=none;fillColor=none;" vertex="1" parent="1">
          <mxGeometry x="165" y="280" width="60" height="30" as="geometry" />
        </mxCell>
        <mxCell id="1mVYOBVDLo1fgl-eQnJa-7" value=". . ." style="text;html=1;align=center;verticalAlign=middle;resizable=0;points=[];autosize=1;strokeColor=none;fillColor=none;" vertex="1" parent="1">
          <mxGeometry x="330" y="280" width="40" height="30" as="geometry" />
        </mxCell>
        <mxCell id="1mVYOBVDLo1fgl-eQnJa-9" value="" style="endArrow=none;html=1;rounded=0;exitX=0.078;exitY=0.033;exitDx=0;exitDy=0;exitPerimeter=0;entryX=0.696;entryY=0.9;entryDx=0;entryDy=0;entryPerimeter=0;" edge="1" parent="1" source="1mVYOBVDLo1fgl-eQnJa-1" target="1mVYOBVDLo1fgl-eQnJa-4">
          <mxGeometry width="50" height="50" relative="1" as="geometry">
            <mxPoint x="260" y="340" as="sourcePoint" />
            <mxPoint x="310" y="290" as="targetPoint" />
          </mxGeometry>
        </mxCell>
        <mxCell id="1mVYOBVDLo1fgl-eQnJa-10" value="" style="endArrow=none;html=1;rounded=0;exitX=0.488;exitY=0.087;exitDx=0;exitDy=0;exitPerimeter=0;entryX=0.544;entryY=1.087;entryDx=0;entryDy=0;entryPerimeter=0;" edge="1" parent="1" source="1mVYOBVDLo1fgl-eQnJa-1" target="1mVYOBVDLo1fgl-eQnJa-5">
          <mxGeometry width="50" height="50" relative="1" as="geometry">
            <mxPoint x="166" y="364" as="sourcePoint" />
            <mxPoint x="140" y="320" as="targetPoint" />
          </mxGeometry>
        </mxCell>
        <mxCell id="1mVYOBVDLo1fgl-eQnJa-11" value="" style="endArrow=none;html=1;rounded=0;exitX=0.878;exitY=-0.1;exitDx=0;exitDy=0;exitPerimeter=0;entryX=0.5;entryY=0.927;entryDx=0;entryDy=0;entryPerimeter=0;" edge="1" parent="1" source="1mVYOBVDLo1fgl-eQnJa-1" target="1mVYOBVDLo1fgl-eQnJa-6">
          <mxGeometry width="50" height="50" relative="1" as="geometry">
            <mxPoint x="276" y="414" as="sourcePoint" />
            <mxPoint x="250" y="370" as="targetPoint" />
          </mxGeometry>
        </mxCell>
        <mxCell id="1mVYOBVDLo1fgl-eQnJa-12" value="" style="endArrow=none;html=1;rounded=0;exitX=1.058;exitY=0.193;exitDx=0;exitDy=0;exitPerimeter=0;entryX=0.47;entryY=0.927;entryDx=0;entryDy=0;entryPerimeter=0;" edge="1" parent="1" source="1mVYOBVDLo1fgl-eQnJa-1" target="1mVYOBVDLo1fgl-eQnJa-7">
          <mxGeometry width="50" height="50" relative="1" as="geometry">
            <mxPoint x="296" y="454" as="sourcePoint" />
            <mxPoint x="270" y="410" as="targetPoint" />
          </mxGeometry>
        </mxCell>
        <mxCell id="1mVYOBVDLo1fgl-eQnJa-13" value="0 - 9" style="text;html=1;align=center;verticalAlign=middle;resizable=0;points=[];autosize=1;strokeColor=none;fillColor=none;" vertex="1" parent="1">
          <mxGeometry x="50" y="200" width="50" height="30" as="geometry" />
        </mxCell>
        <mxCell id="1mVYOBVDLo1fgl-eQnJa-14" value="10 - 19" style="text;html=1;align=center;verticalAlign=middle;resizable=0;points=[];autosize=1;strokeColor=none;fillColor=none;" vertex="1" parent="1">
          <mxGeometry x="190" y="200" width="60" height="30" as="geometry" />
        </mxCell>
        <mxCell id="1mVYOBVDLo1fgl-eQnJa-15" value="15-19" style="text;html=1;align=center;verticalAlign=middle;resizable=0;points=[];autosize=1;strokeColor=none;fillColor=none;" vertex="1" parent="1">
          <mxGeometry x="250" y="280" width="50" height="30" as="geometry" />
        </mxCell>
        <mxCell id="1mVYOBVDLo1fgl-eQnJa-16" value="" style="endArrow=none;html=1;rounded=0;entryX=0.516;entryY=1.073;entryDx=0;entryDy=0;entryPerimeter=0;exitX=0.472;exitY=0.02;exitDx=0;exitDy=0;exitPerimeter=0;" edge="1" parent="1" source="1mVYOBVDLo1fgl-eQnJa-4" target="1mVYOBVDLo1fgl-eQnJa-13">
          <mxGeometry width="50" height="50" relative="1" as="geometry">
            <mxPoint x="310" y="280" as="sourcePoint" />
            <mxPoint x="360" y="230" as="targetPoint" />
          </mxGeometry>
        </mxCell>
        <mxCell id="1mVYOBVDLo1fgl-eQnJa-17" value="" style="endArrow=none;html=1;rounded=0;exitX=0.096;exitY=0.073;exitDx=0;exitDy=0;exitPerimeter=0;entryX=0.884;entryY=0.913;entryDx=0;entryDy=0;entryPerimeter=0;" edge="1" parent="1" source="1mVYOBVDLo1fgl-eQnJa-5" target="1mVYOBVDLo1fgl-eQnJa-13">
          <mxGeometry width="50" height="50" relative="1" as="geometry">
            <mxPoint x="216" y="324" as="sourcePoint" />
            <mxPoint x="190" y="280" as="targetPoint" />
          </mxGeometry>
        </mxCell>
        <mxCell id="1mVYOBVDLo1fgl-eQnJa-18" value="" style="endArrow=none;html=1;rounded=0;exitX=0.367;exitY=-0.113;exitDx=0;exitDy=0;exitPerimeter=0;entryX=0.247;entryY=0.913;entryDx=0;entryDy=0;entryPerimeter=0;" edge="1" parent="1" source="1mVYOBVDLo1fgl-eQnJa-6" target="1mVYOBVDLo1fgl-eQnJa-14">
          <mxGeometry width="50" height="50" relative="1" as="geometry">
            <mxPoint x="196" y="304" as="sourcePoint" />
            <mxPoint x="170" y="260" as="targetPoint" />
          </mxGeometry>
        </mxCell>
        <mxCell id="1mVYOBVDLo1fgl-eQnJa-19" value="" style="endArrow=none;html=1;rounded=0;exitX=0.464;exitY=-0.007;exitDx=0;exitDy=0;exitPerimeter=0;entryX=0.747;entryY=1.113;entryDx=0;entryDy=0;entryPerimeter=0;" edge="1" parent="1" source="1mVYOBVDLo1fgl-eQnJa-15" target="1mVYOBVDLo1fgl-eQnJa-14">
          <mxGeometry width="50" height="50" relative="1" as="geometry">
            <mxPoint x="270" y="310" as="sourcePoint" />
            <mxPoint x="293" y="260" as="targetPoint" />
          </mxGeometry>
        </mxCell>
        <mxCell id="1mVYOBVDLo1fgl-eQnJa-20" value=". . ." style="text;html=1;align=center;verticalAlign=middle;resizable=0;points=[];autosize=1;strokeColor=none;fillColor=none;" vertex="1" parent="1">
          <mxGeometry x="385" y="200" width="40" height="30" as="geometry" />
        </mxCell>
        <mxCell id="1mVYOBVDLo1fgl-eQnJa-21" value="" style="endArrow=none;html=1;rounded=0;exitX=0.43;exitY=-0.113;exitDx=0;exitDy=0;exitPerimeter=0;entryX=0.45;entryY=1.087;entryDx=0;entryDy=0;entryPerimeter=0;" edge="1" parent="1" source="1mVYOBVDLo1fgl-eQnJa-7" target="1mVYOBVDLo1fgl-eQnJa-20">
          <mxGeometry width="50" height="50" relative="1" as="geometry">
            <mxPoint x="560" y="340" as="sourcePoint" />
            <mxPoint x="583" y="290" as="targetPoint" />
          </mxGeometry>
        </mxCell>
        <mxCell id="1mVYOBVDLo1fgl-eQnJa-22" value="Young(0-19)&amp;nbsp; &amp;nbsp; &amp;nbsp; &amp;nbsp; &amp;nbsp; &amp;nbsp; &amp;nbsp; &amp;nbsp;Adult(20-59)&amp;nbsp; &amp;nbsp; &amp;nbsp; &amp;nbsp; &amp;nbsp; &amp;nbsp; &amp;nbsp; &amp;nbsp; &amp;nbsp;Senior(60-79)&amp;nbsp; &amp;nbsp; &amp;nbsp; &amp;nbsp; &amp;nbsp; &amp;nbsp; &amp;nbsp; &amp;nbsp; &amp;nbsp; &amp;nbsp;Elder(80+)" style="text;html=1;align=center;verticalAlign=middle;resizable=0;points=[];autosize=1;strokeColor=none;fillColor=none;" vertex="1" parent="1">
          <mxGeometry x="100" y="120" width="450" height="30" as="geometry" />
        </mxCell>
        <mxCell id="1mVYOBVDLo1fgl-eQnJa-23" value="" style="endArrow=none;html=1;rounded=0;exitX=0.44;exitY=-0.06;exitDx=0;exitDy=0;exitPerimeter=0;entryX=0.066;entryY=0.967;entryDx=0;entryDy=0;entryPerimeter=0;" edge="1" parent="1" source="1mVYOBVDLo1fgl-eQnJa-13" target="1mVYOBVDLo1fgl-eQnJa-22">
          <mxGeometry width="50" height="50" relative="1" as="geometry">
            <mxPoint x="480" y="300" as="sourcePoint" />
            <mxPoint x="503" y="250" as="targetPoint" />
          </mxGeometry>
        </mxCell>
        <mxCell id="1mVYOBVDLo1fgl-eQnJa-24" value="" style="endArrow=none;html=1;rounded=0;exitX=0.353;exitY=-0.087;exitDx=0;exitDy=0;exitPerimeter=0;entryX=0.104;entryY=0.967;entryDx=0;entryDy=0;entryPerimeter=0;" edge="1" parent="1" source="1mVYOBVDLo1fgl-eQnJa-14" target="1mVYOBVDLo1fgl-eQnJa-22">
          <mxGeometry width="50" height="50" relative="1" as="geometry">
            <mxPoint x="360" y="270" as="sourcePoint" />
            <mxPoint x="383" y="220" as="targetPoint" />
          </mxGeometry>
        </mxCell>
        <mxCell id="1mVYOBVDLo1fgl-eQnJa-25" value="20-29" style="text;html=1;align=center;verticalAlign=middle;resizable=0;points=[];autosize=1;strokeColor=none;fillColor=none;" vertex="1" parent="1">
          <mxGeometry x="280" y="200" width="50" height="30" as="geometry" />
        </mxCell>
        <mxCell id="1mVYOBVDLo1fgl-eQnJa-26" value="" style="endArrow=none;html=1;rounded=0;exitX=0.224;exitY=0.047;exitDx=0;exitDy=0;exitPerimeter=0;entryX=0.364;entryY=1.047;entryDx=0;entryDy=0;entryPerimeter=0;" edge="1" parent="1" source="1mVYOBVDLo1fgl-eQnJa-25" target="1mVYOBVDLo1fgl-eQnJa-22">
          <mxGeometry width="50" height="50" relative="1" as="geometry">
            <mxPoint x="420" y="230" as="sourcePoint" />
            <mxPoint x="443" y="180" as="targetPoint" />
          </mxGeometry>
        </mxCell>
        <mxCell id="1mVYOBVDLo1fgl-eQnJa-27" value="*" style="text;html=1;align=center;verticalAlign=middle;resizable=0;points=[];autosize=1;strokeColor=none;fillColor=none;" vertex="1" parent="1">
          <mxGeometry x="305" y="58" width="30" height="30" as="geometry" />
        </mxCell>
        <mxCell id="1mVYOBVDLo1fgl-eQnJa-28" value="" style="endArrow=none;html=1;rounded=0;exitX=0.096;exitY=0.02;exitDx=0;exitDy=0;exitPerimeter=0;entryX=-0.033;entryY=0.593;entryDx=0;entryDy=0;entryPerimeter=0;" edge="1" parent="1" source="1mVYOBVDLo1fgl-eQnJa-22" target="1mVYOBVDLo1fgl-eQnJa-27">
          <mxGeometry width="50" height="50" relative="1" as="geometry">
            <mxPoint x="190" y="130" as="sourcePoint" />
            <mxPoint x="213" y="80" as="targetPoint" />
          </mxGeometry>
        </mxCell>
        <mxCell id="1mVYOBVDLo1fgl-eQnJa-29" value="" style="endArrow=none;html=1;rounded=0;exitX=0.366;exitY=0.073;exitDx=0;exitDy=0;exitPerimeter=0;" edge="1" parent="1" source="1mVYOBVDLo1fgl-eQnJa-22" target="1mVYOBVDLo1fgl-eQnJa-27">
          <mxGeometry width="50" height="50" relative="1" as="geometry">
            <mxPoint x="260" y="170" as="sourcePoint" />
            <mxPoint x="283" y="120" as="targetPoint" />
          </mxGeometry>
        </mxCell>
        <mxCell id="1mVYOBVDLo1fgl-eQnJa-30" value="" style="endArrow=none;html=1;rounded=0;exitX=0.601;exitY=0.047;exitDx=0;exitDy=0;exitPerimeter=0;entryX=0.82;entryY=0.913;entryDx=0;entryDy=0;entryPerimeter=0;" edge="1" parent="1" source="1mVYOBVDLo1fgl-eQnJa-22" target="1mVYOBVDLo1fgl-eQnJa-27">
          <mxGeometry width="50" height="50" relative="1" as="geometry">
            <mxPoint x="360" y="200" as="sourcePoint" />
            <mxPoint x="383" y="150" as="targetPoint" />
          </mxGeometry>
        </mxCell>
        <mxCell id="1mVYOBVDLo1fgl-eQnJa-31" value="" style="endArrow=none;html=1;rounded=0;exitX=0.846;exitY=-0.113;exitDx=0;exitDy=0;exitPerimeter=0;entryX=1.113;entryY=0.513;entryDx=0;entryDy=0;entryPerimeter=0;" edge="1" parent="1" source="1mVYOBVDLo1fgl-eQnJa-22" target="1mVYOBVDLo1fgl-eQnJa-27">
          <mxGeometry width="50" height="50" relative="1" as="geometry">
            <mxPoint x="430" y="110" as="sourcePoint" />
            <mxPoint x="453" y="60" as="targetPoint" />
          </mxGeometry>
        </mxCell>
        <mxCell id="1mVYOBVDLo1fgl-eQnJa-32" value="Marital Status Hierarchy" style="text;html=1;align=center;verticalAlign=middle;resizable=0;points=[];autosize=1;strokeColor=none;fillColor=none;" vertex="1" parent="1">
          <mxGeometry x="190" y="418" width="150" height="30" as="geometry" />
        </mxCell>
        <mxCell id="1mVYOBVDLo1fgl-eQnJa-33" value="*" style="text;html=1;align=center;verticalAlign=middle;resizable=0;points=[];autosize=1;strokeColor=none;fillColor=none;" vertex="1" parent="1">
          <mxGeometry x="245" y="448" width="30" height="30" as="geometry" />
        </mxCell>
        <mxCell id="1mVYOBVDLo1fgl-eQnJa-34" value="&lt;pre style=&quot;text-align: start; overflow-wrap: break-word; text-wrap-mode: wrap;&quot;&gt;Married-civ-spouse&lt;/pre&gt;" style="text;html=1;align=center;verticalAlign=middle;resizable=0;points=[];autosize=1;strokeColor=none;fillColor=none;" vertex="1" parent="1">
          <mxGeometry x="10" y="570" width="140" height="50" as="geometry" />
        </mxCell>
        <mxCell id="1mVYOBVDLo1fgl-eQnJa-35" value="&lt;pre style=&quot;text-align: start; overflow-wrap: break-word; text-wrap-mode: wrap;&quot;&gt;Divorced&lt;/pre&gt;" style="text;html=1;align=center;verticalAlign=middle;resizable=0;points=[];autosize=1;strokeColor=none;fillColor=none;" vertex="1" parent="1">
          <mxGeometry x="385" y="570" width="80" height="50" as="geometry" />
        </mxCell>
        <mxCell id="1mVYOBVDLo1fgl-eQnJa-36" value="&lt;pre style=&quot;text-align: start; overflow-wrap: break-word; text-wrap-mode: wrap;&quot;&gt;Never-married&lt;/pre&gt;" style="text;html=1;align=center;verticalAlign=middle;resizable=0;points=[];autosize=1;strokeColor=none;fillColor=none;" vertex="1" parent="1">
          <mxGeometry x="240" y="570" width="110" height="50" as="geometry" />
        </mxCell>
        <mxCell id="1mVYOBVDLo1fgl-eQnJa-37" value="&lt;pre style=&quot;text-align: start; overflow-wrap: break-word; text-wrap-mode: wrap;&quot;&gt;Separated&lt;/pre&gt;" style="text;html=1;align=center;verticalAlign=middle;resizable=0;points=[];autosize=1;strokeColor=none;fillColor=none;" vertex="1" parent="1">
          <mxGeometry x="460" y="570" width="80" height="50" as="geometry" />
        </mxCell>
        <mxCell id="1mVYOBVDLo1fgl-eQnJa-38" value="&lt;pre style=&quot;text-align: start; overflow-wrap: break-word; text-wrap-mode: wrap;&quot;&gt;Widowed&lt;/pre&gt;" style="text;html=1;align=center;verticalAlign=middle;resizable=0;points=[];autosize=1;strokeColor=none;fillColor=none;" vertex="1" parent="1">
          <mxGeometry x="320" y="570" width="70" height="50" as="geometry" />
        </mxCell>
        <mxCell id="1mVYOBVDLo1fgl-eQnJa-40" value="&lt;pre style=&quot;text-align: start; overflow-wrap: break-word; text-wrap-mode: wrap;&quot;&gt;Married-spouse-absent&lt;/pre&gt;" style="text;html=1;align=center;verticalAlign=middle;resizable=0;points=[];autosize=1;strokeColor=none;fillColor=none;" vertex="1" parent="1">
          <mxGeometry x="80" y="570" width="160" height="50" as="geometry" />
        </mxCell>
        <mxCell id="1mVYOBVDLo1fgl-eQnJa-41" value="&lt;pre style=&quot;text-align: start; overflow-wrap: break-word; text-wrap-mode: wrap;&quot;&gt;Married-AF-spouse&lt;/pre&gt;" style="text;html=1;align=center;verticalAlign=middle;resizable=0;points=[];autosize=1;strokeColor=none;fillColor=none;" vertex="1" parent="1">
          <mxGeometry x="160" y="570" width="140" height="50" as="geometry" />
        </mxCell>
        <mxCell id="1mVYOBVDLo1fgl-eQnJa-42" value="Not Married" style="text;html=1;align=center;verticalAlign=middle;resizable=0;points=[];autosize=1;strokeColor=none;fillColor=none;" vertex="1" parent="1">
          <mxGeometry x="360" y="500" width="90" height="30" as="geometry" />
        </mxCell>
        <mxCell id="1mVYOBVDLo1fgl-eQnJa-43" value="Married" style="text;html=1;align=center;verticalAlign=middle;resizable=0;points=[];autosize=1;strokeColor=none;fillColor=none;" vertex="1" parent="1">
          <mxGeometry x="120" y="500" width="60" height="30" as="geometry" />
        </mxCell>
        <mxCell id="1mVYOBVDLo1fgl-eQnJa-44" value="" style="endArrow=none;html=1;rounded=0;entryX=0.151;entryY=1.069;entryDx=0;entryDy=0;entryPerimeter=0;exitX=0.479;exitY=-0.006;exitDx=0;exitDy=0;exitPerimeter=0;" edge="1" parent="1" source="1mVYOBVDLo1fgl-eQnJa-34" target="1mVYOBVDLo1fgl-eQnJa-43">
          <mxGeometry width="50" height="50" relative="1" as="geometry">
            <mxPoint x="260" y="490" as="sourcePoint" />
            <mxPoint x="310" y="440" as="targetPoint" />
          </mxGeometry>
        </mxCell>
        <mxCell id="1mVYOBVDLo1fgl-eQnJa-45" value="" style="endArrow=none;html=1;rounded=0;entryX=0.163;entryY=1.027;entryDx=0;entryDy=0;entryPerimeter=0;exitX=0.524;exitY=0.045;exitDx=0;exitDy=0;exitPerimeter=0;" edge="1" parent="1" source="1mVYOBVDLo1fgl-eQnJa-36" target="1mVYOBVDLo1fgl-eQnJa-42">
          <mxGeometry width="50" height="50" relative="1" as="geometry">
            <mxPoint x="230" y="608" as="sourcePoint" />
            <mxPoint x="312" y="550" as="targetPoint" />
          </mxGeometry>
        </mxCell>
        <mxCell id="1mVYOBVDLo1fgl-eQnJa-46" value="" style="endArrow=none;html=1;rounded=0;exitX=0.473;exitY=0.053;exitDx=0;exitDy=0;exitPerimeter=0;entryX=0.433;entryY=0.984;entryDx=0;entryDy=0;entryPerimeter=0;" edge="1" parent="1" source="1mVYOBVDLo1fgl-eQnJa-38" target="1mVYOBVDLo1fgl-eQnJa-42">
          <mxGeometry width="50" height="50" relative="1" as="geometry">
            <mxPoint x="360" y="598" as="sourcePoint" />
            <mxPoint x="323" y="529" as="targetPoint" />
          </mxGeometry>
        </mxCell>
        <mxCell id="1mVYOBVDLo1fgl-eQnJa-47" value="" style="endArrow=none;html=1;rounded=0;entryX=0.407;entryY=1.069;entryDx=0;entryDy=0;entryPerimeter=0;exitX=0.448;exitY=0.045;exitDx=0;exitDy=0;exitPerimeter=0;" edge="1" parent="1" source="1mVYOBVDLo1fgl-eQnJa-40" target="1mVYOBVDLo1fgl-eQnJa-43">
          <mxGeometry width="50" height="50" relative="1" as="geometry">
            <mxPoint x="400" y="738" as="sourcePoint" />
            <mxPoint x="482" y="680" as="targetPoint" />
          </mxGeometry>
        </mxCell>
        <mxCell id="1mVYOBVDLo1fgl-eQnJa-48" value="" style="endArrow=none;html=1;rounded=0;entryX=0.929;entryY=0.941;entryDx=0;entryDy=0;entryPerimeter=0;exitX=0.518;exitY=0.006;exitDx=0;exitDy=0;exitPerimeter=0;" edge="1" parent="1" source="1mVYOBVDLo1fgl-eQnJa-41" target="1mVYOBVDLo1fgl-eQnJa-43">
          <mxGeometry width="50" height="50" relative="1" as="geometry">
            <mxPoint x="360" y="748" as="sourcePoint" />
            <mxPoint x="442" y="690" as="targetPoint" />
          </mxGeometry>
        </mxCell>
        <mxCell id="1mVYOBVDLo1fgl-eQnJa-49" value="" style="endArrow=none;html=1;rounded=0;entryX=0.732;entryY=1.048;entryDx=0;entryDy=0;entryPerimeter=0;exitX=0.512;exitY=0.006;exitDx=0;exitDy=0;exitPerimeter=0;" edge="1" parent="1" source="1mVYOBVDLo1fgl-eQnJa-35" target="1mVYOBVDLo1fgl-eQnJa-42">
          <mxGeometry width="50" height="50" relative="1" as="geometry">
            <mxPoint x="300" y="748" as="sourcePoint" />
            <mxPoint x="382" y="690" as="targetPoint" />
          </mxGeometry>
        </mxCell>
        <mxCell id="1mVYOBVDLo1fgl-eQnJa-50" value="" style="endArrow=none;html=1;rounded=0;entryX=0.884;entryY=1.005;entryDx=0;entryDy=0;entryPerimeter=0;exitX=0.523;exitY=0.07;exitDx=0;exitDy=0;exitPerimeter=0;" edge="1" parent="1" source="1mVYOBVDLo1fgl-eQnJa-37" target="1mVYOBVDLo1fgl-eQnJa-42">
          <mxGeometry width="50" height="50" relative="1" as="geometry">
            <mxPoint x="380" y="688" as="sourcePoint" />
            <mxPoint x="462" y="630" as="targetPoint" />
          </mxGeometry>
        </mxCell>
        <mxCell id="1mVYOBVDLo1fgl-eQnJa-51" value="" style="endArrow=none;html=1;rounded=0;entryX=0.535;entryY=1.053;entryDx=0;entryDy=0;entryPerimeter=0;exitX=0.641;exitY=-0.04;exitDx=0;exitDy=0;exitPerimeter=0;" edge="1" parent="1" source="1mVYOBVDLo1fgl-eQnJa-43" target="1mVYOBVDLo1fgl-eQnJa-33">
          <mxGeometry width="50" height="50" relative="1" as="geometry">
            <mxPoint x="320" y="668" as="sourcePoint" />
            <mxPoint x="402" y="610" as="targetPoint" />
          </mxGeometry>
        </mxCell>
        <mxCell id="1mVYOBVDLo1fgl-eQnJa-52" value="" style="endArrow=none;html=1;rounded=0;entryX=0.769;entryY=1.096;entryDx=0;entryDy=0;entryPerimeter=0;exitX=0.323;exitY=-0.04;exitDx=0;exitDy=0;exitPerimeter=0;" edge="1" parent="1" source="1mVYOBVDLo1fgl-eQnJa-42" target="1mVYOBVDLo1fgl-eQnJa-33">
          <mxGeometry width="50" height="50" relative="1" as="geometry">
            <mxPoint x="280" y="568" as="sourcePoint" />
            <mxPoint x="362" y="510" as="targetPoint" />
          </mxGeometry>
        </mxCell>
        <mxCell id="1mVYOBVDLo1fgl-eQnJa-53" value="Education Hierarchy" style="text;html=1;align=center;verticalAlign=middle;resizable=0;points=[];autosize=1;strokeColor=none;fillColor=none;" vertex="1" parent="1">
          <mxGeometry x="215" y="698" width="130" height="30" as="geometry" />
        </mxCell>
        <mxCell id="1mVYOBVDLo1fgl-eQnJa-54" value="*" style="text;html=1;align=center;verticalAlign=middle;resizable=0;points=[];autosize=1;strokeColor=none;fillColor=none;" vertex="1" parent="1">
          <mxGeometry x="265" y="748" width="30" height="30" as="geometry" />
        </mxCell>
        <mxCell id="1mVYOBVDLo1fgl-eQnJa-55" value="&lt;pre style=&quot;text-align: start; overflow-wrap: break-word; text-wrap-mode: wrap;&quot;&gt;Bachelors, &lt;/pre&gt;" style="text;html=1;align=center;verticalAlign=middle;resizable=0;points=[];autosize=1;strokeColor=none;fillColor=none;" vertex="1" parent="1">
          <mxGeometry y="890" width="100" height="50" as="geometry" />
        </mxCell>
        <mxCell id="1mVYOBVDLo1fgl-eQnJa-56" value="&lt;pre style=&quot;text-align: start; overflow-wrap: break-word; text-wrap-mode: wrap;&quot;&gt;Some-college, &lt;/pre&gt;" style="text;html=1;align=center;verticalAlign=middle;resizable=0;points=[];autosize=1;strokeColor=none;fillColor=none;" vertex="1" parent="1">
          <mxGeometry x="65" y="890" width="120" height="50" as="geometry" />
        </mxCell>
        <mxCell id="1mVYOBVDLo1fgl-eQnJa-57" value="&lt;pre style=&quot;text-align: start; overflow-wrap: break-word; text-wrap-mode: wrap;&quot;&gt;11th, &lt;/pre&gt;" style="text;html=1;align=center;verticalAlign=middle;resizable=0;points=[];autosize=1;strokeColor=none;fillColor=none;" vertex="1" parent="1">
          <mxGeometry x="395" y="890" width="60" height="50" as="geometry" />
        </mxCell>
        <mxCell id="1mVYOBVDLo1fgl-eQnJa-58" value="&lt;pre style=&quot;text-align: start; overflow-wrap: break-word; text-wrap-mode: wrap;&quot;&gt;HS-grad&lt;/pre&gt;" style="text;html=1;align=center;verticalAlign=middle;resizable=0;points=[];autosize=1;strokeColor=none;fillColor=none;" vertex="1" parent="1">
          <mxGeometry x="300" y="890" width="70" height="50" as="geometry" />
        </mxCell>
        <mxCell id="1mVYOBVDLo1fgl-eQnJa-59" value="&lt;pre style=&quot;text-align: start; overflow-wrap: break-word; text-wrap-mode: wrap;&quot;&gt;Prof-school, &lt;/pre&gt;" style="text;html=1;align=center;verticalAlign=middle;resizable=0;points=[];autosize=1;strokeColor=none;fillColor=none;" vertex="1" parent="1">
          <mxGeometry x="130" y="890" width="110" height="50" as="geometry" />
        </mxCell>
        <mxCell id="1mVYOBVDLo1fgl-eQnJa-60" value="&lt;pre style=&quot;text-align: start; overflow-wrap: break-word; text-wrap-mode: wrap;&quot;&gt;Assoc-acdm, &lt;/pre&gt;" style="text;html=1;align=center;verticalAlign=middle;resizable=0;points=[];autosize=1;strokeColor=none;fillColor=none;" vertex="1" parent="1">
          <mxGeometry x="190" y="890" width="100" height="50" as="geometry" />
        </mxCell>
        <mxCell id="1mVYOBVDLo1fgl-eQnJa-61" value="&lt;pre style=&quot;text-align: start; overflow-wrap: break-word; text-wrap-mode: wrap;&quot;&gt;Assoc-voc, &lt;/pre&gt;" style="text;html=1;align=center;verticalAlign=middle;resizable=0;points=[];autosize=1;strokeColor=none;fillColor=none;" vertex="1" parent="1">
          <mxGeometry x="240" y="890" width="100" height="50" as="geometry" />
        </mxCell>
        <mxCell id="1mVYOBVDLo1fgl-eQnJa-63" value="&lt;pre style=&quot;text-align: start; overflow-wrap: break-word; text-wrap-mode: wrap; color: rgb(255, 255, 255); background-color: rgb(27, 29, 30);&quot;&gt;7th-8th, &lt;/pre&gt;" style="text;html=1;align=center;verticalAlign=middle;resizable=0;points=[];autosize=1;strokeColor=none;fillColor=none;" vertex="1" parent="1">
          <mxGeometry x="500" y="890" width="80" height="50" as="geometry" />
        </mxCell>
        <mxCell id="1mVYOBVDLo1fgl-eQnJa-64" value="&lt;pre style=&quot;text-align: start; overflow-wrap: break-word; text-wrap-mode: wrap; color: rgb(255, 255, 255); background-color: rgb(27, 29, 30);&quot;&gt;12th,&lt;/pre&gt;" style="text;html=1;align=center;verticalAlign=middle;resizable=0;points=[];autosize=1;strokeColor=none;fillColor=none;" vertex="1" parent="1">
          <mxGeometry x="350" y="890" width="60" height="50" as="geometry" />
        </mxCell>
        <mxCell id="1mVYOBVDLo1fgl-eQnJa-65" value="9th" style="text;html=1;align=center;verticalAlign=middle;resizable=0;points=[];autosize=1;strokeColor=none;fillColor=none;" vertex="1" parent="1">
          <mxGeometry x="490" y="900" width="40" height="30" as="geometry" />
        </mxCell>
        <mxCell id="1mVYOBVDLo1fgl-eQnJa-66" value="&lt;pre style=&quot;text-align: start; overflow-wrap: break-word; text-wrap-mode: wrap; color: rgb(255, 255, 255); background-color: rgb(27, 29, 30);&quot;&gt; Masters, &lt;/pre&gt;" style="text;html=1;align=center;verticalAlign=middle;resizable=0;points=[];autosize=1;strokeColor=none;fillColor=none;" vertex="1" parent="1">
          <mxGeometry x="-60" y="890" width="90" height="50" as="geometry" />
        </mxCell>
        <mxCell id="1mVYOBVDLo1fgl-eQnJa-67" value="&lt;pre style=&quot;text-align: start; overflow-wrap: break-word; text-wrap-mode: wrap; color: rgb(255, 255, 255); background-color: rgb(27, 29, 30);&quot;&gt;1st-4th, &lt;/pre&gt;" style="text;html=1;align=center;verticalAlign=middle;resizable=0;points=[];autosize=1;strokeColor=none;fillColor=none;" vertex="1" parent="1">
          <mxGeometry x="590" y="890" width="80" height="50" as="geometry" />
        </mxCell>
        <mxCell id="1mVYOBVDLo1fgl-eQnJa-68" value="&lt;pre style=&quot;text-align: start; overflow-wrap: break-word; text-wrap-mode: wrap; color: rgb(255, 255, 255); background-color: rgb(27, 29, 30);&quot;&gt;10th, &lt;/pre&gt;" style="text;html=1;align=center;verticalAlign=middle;resizable=0;points=[];autosize=1;strokeColor=none;fillColor=none;" vertex="1" parent="1">
          <mxGeometry x="440" y="890" width="60" height="50" as="geometry" />
        </mxCell>
        <mxCell id="1mVYOBVDLo1fgl-eQnJa-69" value="&lt;pre style=&quot;text-align: start; overflow-wrap: break-word; text-wrap-mode: wrap; color: rgb(255, 255, 255); background-color: rgb(27, 29, 30);&quot;&gt;Doctorate, &lt;/pre&gt;" style="text;html=1;align=center;verticalAlign=middle;resizable=0;points=[];autosize=1;strokeColor=none;fillColor=none;" vertex="1" parent="1">
          <mxGeometry x="-140" y="890" width="100" height="50" as="geometry" />
        </mxCell>
        <mxCell id="1mVYOBVDLo1fgl-eQnJa-70" value="&lt;pre style=&quot;text-align: start; overflow-wrap: break-word; text-wrap-mode: wrap; color: rgb(255, 255, 255); background-color: rgb(27, 29, 30);&quot;&gt;5th-6th, &lt;/pre&gt;" style="text;html=1;align=center;verticalAlign=middle;resizable=0;points=[];autosize=1;strokeColor=none;fillColor=none;" vertex="1" parent="1">
          <mxGeometry x="550" y="890" width="80" height="50" as="geometry" />
        </mxCell>
        <mxCell id="1mVYOBVDLo1fgl-eQnJa-71" value="&lt;pre style=&quot;text-align: start; overflow-wrap: break-word; text-wrap-mode: wrap; color: rgb(255, 255, 255); background-color: rgb(27, 29, 30);&quot;&gt;Preschool&lt;/pre&gt;" style="text;html=1;align=center;verticalAlign=middle;resizable=0;points=[];autosize=1;strokeColor=none;fillColor=none;" vertex="1" parent="1">
          <mxGeometry x="660" y="890" width="80" height="50" as="geometry" />
        </mxCell>
        <mxCell id="1mVYOBVDLo1fgl-eQnJa-72" value="College" style="text;html=1;align=center;verticalAlign=middle;resizable=0;points=[];autosize=1;strokeColor=none;fillColor=none;" vertex="1" parent="1">
          <mxGeometry x="40" y="820" width="60" height="30" as="geometry" />
        </mxCell>
        <mxCell id="1mVYOBVDLo1fgl-eQnJa-73" value="Highschool" style="text;html=1;align=center;verticalAlign=middle;resizable=0;points=[];autosize=1;strokeColor=none;fillColor=none;" vertex="1" parent="1">
          <mxGeometry x="350" y="810" width="80" height="30" as="geometry" />
        </mxCell>
        <mxCell id="1mVYOBVDLo1fgl-eQnJa-74" value="Primary" style="text;html=1;align=center;verticalAlign=middle;resizable=0;points=[];autosize=1;strokeColor=none;fillColor=none;" vertex="1" parent="1">
          <mxGeometry x="520" y="820" width="60" height="30" as="geometry" />
        </mxCell>
        <mxCell id="1mVYOBVDLo1fgl-eQnJa-75" value="" style="endArrow=none;html=1;rounded=0;entryX=0.458;entryY=1.091;entryDx=0;entryDy=0;entryPerimeter=0;exitX=0.477;exitY=-0.018;exitDx=0;exitDy=0;exitPerimeter=0;" edge="1" parent="1" source="1mVYOBVDLo1fgl-eQnJa-69" target="1mVYOBVDLo1fgl-eQnJa-72">
          <mxGeometry width="50" height="50" relative="1" as="geometry">
            <mxPoint x="310" y="850" as="sourcePoint" />
            <mxPoint x="360" y="800" as="targetPoint" />
          </mxGeometry>
        </mxCell>
        <mxCell id="1mVYOBVDLo1fgl-eQnJa-76" value="" style="endArrow=none;html=1;rounded=0;exitX=0.498;exitY=0.04;exitDx=0;exitDy=0;exitPerimeter=0;entryX=0.474;entryY=1.115;entryDx=0;entryDy=0;entryPerimeter=0;" edge="1" parent="1" source="1mVYOBVDLo1fgl-eQnJa-66" target="1mVYOBVDLo1fgl-eQnJa-72">
          <mxGeometry width="50" height="50" relative="1" as="geometry">
            <mxPoint x="80" y="887" as="sourcePoint" />
            <mxPoint x="90" y="850" as="targetPoint" />
          </mxGeometry>
        </mxCell>
        <mxCell id="1mVYOBVDLo1fgl-eQnJa-77" value="" style="endArrow=none;html=1;rounded=0;exitX=0.459;exitY=-0.004;exitDx=0;exitDy=0;exitPerimeter=0;entryX=0.506;entryY=1.018;entryDx=0;entryDy=0;entryPerimeter=0;" edge="1" parent="1" source="1mVYOBVDLo1fgl-eQnJa-55" target="1mVYOBVDLo1fgl-eQnJa-72">
          <mxGeometry width="50" height="50" relative="1" as="geometry">
            <mxPoint x="150" y="907" as="sourcePoint" />
            <mxPoint x="70" y="852" as="targetPoint" />
          </mxGeometry>
        </mxCell>
        <mxCell id="1mVYOBVDLo1fgl-eQnJa-78" value="" style="endArrow=none;html=1;rounded=0;exitX=0.405;exitY=-0.033;exitDx=0;exitDy=0;exitPerimeter=0;" edge="1" parent="1" source="1mVYOBVDLo1fgl-eQnJa-56">
          <mxGeometry width="50" height="50" relative="1" as="geometry">
            <mxPoint x="210" y="867" as="sourcePoint" />
            <mxPoint x="72" y="850" as="targetPoint" />
          </mxGeometry>
        </mxCell>
        <mxCell id="1mVYOBVDLo1fgl-eQnJa-79" value="Professional" style="text;html=1;align=center;verticalAlign=middle;resizable=0;points=[];autosize=1;strokeColor=none;fillColor=none;" vertex="1" parent="1">
          <mxGeometry x="200" y="810" width="90" height="30" as="geometry" />
        </mxCell>
        <mxCell id="1mVYOBVDLo1fgl-eQnJa-81" value="" style="endArrow=none;html=1;rounded=0;exitX=0.426;exitY=-0.018;exitDx=0;exitDy=0;exitPerimeter=0;entryX=0.476;entryY=1.139;entryDx=0;entryDy=0;entryPerimeter=0;" edge="1" parent="1" source="1mVYOBVDLo1fgl-eQnJa-59" target="1mVYOBVDLo1fgl-eQnJa-79">
          <mxGeometry width="50" height="50" relative="1" as="geometry">
            <mxPoint x="292" y="898" as="sourcePoint" />
            <mxPoint x="250" y="860" as="targetPoint" />
          </mxGeometry>
        </mxCell>
        <mxCell id="1mVYOBVDLo1fgl-eQnJa-82" value="" style="endArrow=none;html=1;rounded=0;exitX=0.486;exitY=-0.004;exitDx=0;exitDy=0;exitPerimeter=0;entryX=0.468;entryY=1.139;entryDx=0;entryDy=0;entryPerimeter=0;" edge="1" parent="1" source="1mVYOBVDLo1fgl-eQnJa-60" target="1mVYOBVDLo1fgl-eQnJa-79">
          <mxGeometry width="50" height="50" relative="1" as="geometry">
            <mxPoint x="282" y="908" as="sourcePoint" />
            <mxPoint x="240" y="870" as="targetPoint" />
          </mxGeometry>
        </mxCell>
        <mxCell id="1mVYOBVDLo1fgl-eQnJa-83" value="" style="endArrow=none;html=1;rounded=0;exitX=0.365;exitY=-0.018;exitDx=0;exitDy=0;exitPerimeter=0;entryX=0.605;entryY=1.091;entryDx=0;entryDy=0;entryPerimeter=0;" edge="1" parent="1" source="1mVYOBVDLo1fgl-eQnJa-61" target="1mVYOBVDLo1fgl-eQnJa-79">
          <mxGeometry width="50" height="50" relative="1" as="geometry">
            <mxPoint x="352" y="908" as="sourcePoint" />
            <mxPoint x="310" y="870" as="targetPoint" />
          </mxGeometry>
        </mxCell>
        <mxCell id="1mVYOBVDLo1fgl-eQnJa-84" value="" style="endArrow=none;html=1;rounded=0;exitX=0.391;exitY=0.04;exitDx=0;exitDy=0;exitPerimeter=0;entryX=0.502;entryY=1.018;entryDx=0;entryDy=0;entryPerimeter=0;" edge="1" parent="1" source="1mVYOBVDLo1fgl-eQnJa-58" target="1mVYOBVDLo1fgl-eQnJa-73">
          <mxGeometry width="50" height="50" relative="1" as="geometry">
            <mxPoint x="402" y="918" as="sourcePoint" />
            <mxPoint x="360" y="880" as="targetPoint" />
          </mxGeometry>
        </mxCell>
        <mxCell id="1mVYOBVDLo1fgl-eQnJa-85" value="" style="endArrow=none;html=1;rounded=0;exitX=0.132;exitY=-0.004;exitDx=0;exitDy=0;exitPerimeter=0;entryX=0.602;entryY=0.921;entryDx=0;entryDy=0;entryPerimeter=0;" edge="1" parent="1" source="1mVYOBVDLo1fgl-eQnJa-64" target="1mVYOBVDLo1fgl-eQnJa-73">
          <mxGeometry width="50" height="50" relative="1" as="geometry">
            <mxPoint x="362" y="891" as="sourcePoint" />
            <mxPoint x="360" y="850" as="targetPoint" />
          </mxGeometry>
        </mxCell>
        <mxCell id="1mVYOBVDLo1fgl-eQnJa-86" value="" style="endArrow=none;html=1;rounded=0;exitX=0.412;exitY=-0.033;exitDx=0;exitDy=0;exitPerimeter=0;entryX=0.657;entryY=0.994;entryDx=0;entryDy=0;entryPerimeter=0;" edge="1" parent="1" source="1mVYOBVDLo1fgl-eQnJa-57" target="1mVYOBVDLo1fgl-eQnJa-73">
          <mxGeometry width="50" height="50" relative="1" as="geometry">
            <mxPoint x="432" y="921" as="sourcePoint" />
            <mxPoint x="430" y="880" as="targetPoint" />
          </mxGeometry>
        </mxCell>
        <mxCell id="1mVYOBVDLo1fgl-eQnJa-87" value="" style="endArrow=none;html=1;rounded=0;exitX=0.486;exitY=0.011;exitDx=0;exitDy=0;exitPerimeter=0;entryX=0.775;entryY=0.945;entryDx=0;entryDy=0;entryPerimeter=0;" edge="1" parent="1" source="1mVYOBVDLo1fgl-eQnJa-68" target="1mVYOBVDLo1fgl-eQnJa-73">
          <mxGeometry width="50" height="50" relative="1" as="geometry">
            <mxPoint x="462" y="911" as="sourcePoint" />
            <mxPoint x="460" y="870" as="targetPoint" />
          </mxGeometry>
        </mxCell>
        <mxCell id="1mVYOBVDLo1fgl-eQnJa-90" value="" style="endArrow=none;html=1;rounded=0;exitX=0.334;exitY=-0.073;exitDx=0;exitDy=0;exitPerimeter=0;entryX=1.008;entryY=1.061;entryDx=0;entryDy=0;entryPerimeter=0;" edge="1" parent="1" source="1mVYOBVDLo1fgl-eQnJa-65" target="1mVYOBVDLo1fgl-eQnJa-73">
          <mxGeometry width="50" height="50" relative="1" as="geometry">
            <mxPoint x="487" y="913" as="sourcePoint" />
            <mxPoint x="430" y="860" as="targetPoint" />
          </mxGeometry>
        </mxCell>
        <mxCell id="1mVYOBVDLo1fgl-eQnJa-91" value="" style="endArrow=none;html=1;rounded=0;exitX=0.387;exitY=0.025;exitDx=0;exitDy=0;exitPerimeter=0;entryX=0.256;entryY=0.994;entryDx=0;entryDy=0;entryPerimeter=0;" edge="1" parent="1" source="1mVYOBVDLo1fgl-eQnJa-63" target="1mVYOBVDLo1fgl-eQnJa-74">
          <mxGeometry width="50" height="50" relative="1" as="geometry">
            <mxPoint x="557" y="903" as="sourcePoint" />
            <mxPoint x="500" y="850" as="targetPoint" />
          </mxGeometry>
        </mxCell>
        <mxCell id="1mVYOBVDLo1fgl-eQnJa-92" value="" style="endArrow=none;html=1;rounded=0;exitX=0.335;exitY=0.04;exitDx=0;exitDy=0;exitPerimeter=0;entryX=0.547;entryY=0.994;entryDx=0;entryDy=0;entryPerimeter=0;" edge="1" parent="1" source="1mVYOBVDLo1fgl-eQnJa-70" target="1mVYOBVDLo1fgl-eQnJa-74">
          <mxGeometry width="50" height="50" relative="1" as="geometry">
            <mxPoint x="647" y="903" as="sourcePoint" />
            <mxPoint x="590" y="850" as="targetPoint" />
          </mxGeometry>
        </mxCell>
        <mxCell id="1mVYOBVDLo1fgl-eQnJa-93" value="" style="endArrow=none;html=1;rounded=0;exitX=0.562;exitY=0.025;exitDx=0;exitDy=0;exitPerimeter=0;entryX=0.765;entryY=0.97;entryDx=0;entryDy=0;entryPerimeter=0;" edge="1" parent="1" source="1mVYOBVDLo1fgl-eQnJa-67" target="1mVYOBVDLo1fgl-eQnJa-74">
          <mxGeometry width="50" height="50" relative="1" as="geometry">
            <mxPoint x="657" y="903" as="sourcePoint" />
            <mxPoint x="600" y="850" as="targetPoint" />
          </mxGeometry>
        </mxCell>
        <mxCell id="1mVYOBVDLo1fgl-eQnJa-94" value="" style="endArrow=none;html=1;rounded=0;exitX=0.424;exitY=-0.033;exitDx=0;exitDy=0;exitPerimeter=0;entryX=0.959;entryY=0.8;entryDx=0;entryDy=0;entryPerimeter=0;" edge="1" parent="1" source="1mVYOBVDLo1fgl-eQnJa-71" target="1mVYOBVDLo1fgl-eQnJa-74">
          <mxGeometry width="50" height="50" relative="1" as="geometry">
            <mxPoint x="717" y="863" as="sourcePoint" />
            <mxPoint x="660" y="810" as="targetPoint" />
          </mxGeometry>
        </mxCell>
        <mxCell id="1mVYOBVDLo1fgl-eQnJa-95" value="" style="endArrow=none;html=1;rounded=0;exitX=0.717;exitY=-0.024;exitDx=0;exitDy=0;exitPerimeter=0;entryX=0.042;entryY=0.776;entryDx=0;entryDy=0;entryPerimeter=0;" edge="1" parent="1" source="1mVYOBVDLo1fgl-eQnJa-72" target="1mVYOBVDLo1fgl-eQnJa-54">
          <mxGeometry width="50" height="50" relative="1" as="geometry">
            <mxPoint x="207" y="823" as="sourcePoint" />
            <mxPoint x="150" y="770" as="targetPoint" />
          </mxGeometry>
        </mxCell>
        <mxCell id="1mVYOBVDLo1fgl-eQnJa-96" value="" style="endArrow=none;html=1;rounded=0;exitX=0.542;exitY=-0.03;exitDx=0;exitDy=0;exitPerimeter=0;entryX=0.188;entryY=1.042;entryDx=0;entryDy=0;entryPerimeter=0;" edge="1" parent="1" source="1mVYOBVDLo1fgl-eQnJa-79" target="1mVYOBVDLo1fgl-eQnJa-54">
          <mxGeometry width="50" height="50" relative="1" as="geometry">
            <mxPoint x="207" y="873" as="sourcePoint" />
            <mxPoint x="150" y="820" as="targetPoint" />
          </mxGeometry>
        </mxCell>
        <mxCell id="1mVYOBVDLo1fgl-eQnJa-97" value="" style="endArrow=none;html=1;rounded=0;entryX=0.915;entryY=1.018;entryDx=0;entryDy=0;entryPerimeter=0;exitX=0.344;exitY=0.042;exitDx=0;exitDy=0;exitPerimeter=0;" edge="1" parent="1" source="1mVYOBVDLo1fgl-eQnJa-73" target="1mVYOBVDLo1fgl-eQnJa-54">
          <mxGeometry width="50" height="50" relative="1" as="geometry">
            <mxPoint x="380" y="800" as="sourcePoint" />
            <mxPoint x="310" y="770" as="targetPoint" />
          </mxGeometry>
        </mxCell>
        <mxCell id="1mVYOBVDLo1fgl-eQnJa-98" value="" style="endArrow=none;html=1;rounded=0;exitX=0.329;exitY=0.024;exitDx=0;exitDy=0;exitPerimeter=0;entryX=0.915;entryY=0.703;entryDx=0;entryDy=0;entryPerimeter=0;" edge="1" parent="1" source="1mVYOBVDLo1fgl-eQnJa-74" target="1mVYOBVDLo1fgl-eQnJa-54">
          <mxGeometry width="50" height="50" relative="1" as="geometry">
            <mxPoint x="477" y="763" as="sourcePoint" />
            <mxPoint x="420" y="710" as="targetPoint" />
          </mxGeometry>
        </mxCell>
        <mxCell id="1mVYOBVDLo1fgl-eQnJa-99" value="Race Generalization Hierarchy" style="text;html=1;align=center;verticalAlign=middle;resizable=0;points=[];autosize=1;strokeColor=none;fillColor=none;" vertex="1" parent="1">
          <mxGeometry x="-330" y="58" width="190" height="30" as="geometry" />
        </mxCell>
        <mxCell id="1mVYOBVDLo1fgl-eQnJa-100" value="0" style="text;html=1;align=center;verticalAlign=middle;resizable=0;points=[];autosize=1;strokeColor=none;fillColor=none;" vertex="1" parent="1">
          <mxGeometry x="-170" y="890" width="30" height="30" as="geometry" />
        </mxCell>
        <mxCell id="1mVYOBVDLo1fgl-eQnJa-101" value="1" style="text;html=1;align=center;verticalAlign=middle;resizable=0;points=[];autosize=1;strokeColor=none;fillColor=none;" vertex="1" parent="1">
          <mxGeometry x="-10" y="810" width="30" height="30" as="geometry" />
        </mxCell>
        <mxCell id="1mVYOBVDLo1fgl-eQnJa-102" value="2" style="text;html=1;align=center;verticalAlign=middle;resizable=0;points=[];autosize=1;strokeColor=none;fillColor=none;" vertex="1" parent="1">
          <mxGeometry x="215" y="748" width="30" height="30" as="geometry" />
        </mxCell>
        <mxCell id="1mVYOBVDLo1fgl-eQnJa-103" value="0" style="text;html=1;align=center;verticalAlign=middle;resizable=0;points=[];autosize=1;strokeColor=none;fillColor=none;" vertex="1" parent="1">
          <mxGeometry x="20" y="560" width="30" height="30" as="geometry" />
        </mxCell>
        <mxCell id="1mVYOBVDLo1fgl-eQnJa-104" value="1" style="text;html=1;align=center;verticalAlign=middle;resizable=0;points=[];autosize=1;strokeColor=none;fillColor=none;" vertex="1" parent="1">
          <mxGeometry x="90" y="490" width="30" height="30" as="geometry" />
        </mxCell>
        <mxCell id="1mVYOBVDLo1fgl-eQnJa-105" value="2" style="text;html=1;align=center;verticalAlign=middle;resizable=0;points=[];autosize=1;strokeColor=none;fillColor=none;" vertex="1" parent="1">
          <mxGeometry x="215" y="448" width="30" height="30" as="geometry" />
        </mxCell>
        <mxCell id="1mVYOBVDLo1fgl-eQnJa-106" value="0" style="text;html=1;align=center;verticalAlign=middle;resizable=0;points=[];autosize=1;strokeColor=none;fillColor=none;" vertex="1" parent="1">
          <mxGeometry x="30" y="350" width="30" height="30" as="geometry" />
        </mxCell>
        <mxCell id="1mVYOBVDLo1fgl-eQnJa-107" value="1" style="text;html=1;align=center;verticalAlign=middle;resizable=0;points=[];autosize=1;strokeColor=none;fillColor=none;" vertex="1" parent="1">
          <mxGeometry x="10" y="270" width="30" height="30" as="geometry" />
        </mxCell>
        <mxCell id="1mVYOBVDLo1fgl-eQnJa-108" value="2" style="text;html=1;align=center;verticalAlign=middle;resizable=0;points=[];autosize=1;strokeColor=none;fillColor=none;" vertex="1" parent="1">
          <mxGeometry x="35" y="188" width="30" height="30" as="geometry" />
        </mxCell>
        <mxCell id="1mVYOBVDLo1fgl-eQnJa-109" value="3" style="text;html=1;align=center;verticalAlign=middle;resizable=0;points=[];autosize=1;strokeColor=none;fillColor=none;" vertex="1" parent="1">
          <mxGeometry x="80" y="110" width="30" height="30" as="geometry" />
        </mxCell>
        <mxCell id="1mVYOBVDLo1fgl-eQnJa-110" value="4" style="text;html=1;align=center;verticalAlign=middle;resizable=0;points=[];autosize=1;strokeColor=none;fillColor=none;" vertex="1" parent="1">
          <mxGeometry x="270" y="50" width="30" height="30" as="geometry" />
        </mxCell>
        <mxCell id="1mVYOBVDLo1fgl-eQnJa-112" value="&lt;pre style=&quot;text-align: start; overflow-wrap: break-word; text-wrap-mode: wrap;&quot;&gt;White&lt;/pre&gt;" style="text;html=1;align=center;verticalAlign=middle;resizable=0;points=[];autosize=1;strokeColor=none;fillColor=none;" vertex="1" parent="1">
          <mxGeometry x="-390" y="160" width="60" height="50" as="geometry" />
        </mxCell>
        <mxCell id="1mVYOBVDLo1fgl-eQnJa-113" value="&lt;pre style=&quot;text-align: start; overflow-wrap: break-word; text-wrap-mode: wrap;&quot;&gt;Asian-Pac-Islander&lt;/pre&gt;" style="text;html=1;align=center;verticalAlign=middle;resizable=0;points=[];autosize=1;strokeColor=none;fillColor=none;" vertex="1" parent="1">
          <mxGeometry x="-360" y="160" width="140" height="50" as="geometry" />
        </mxCell>
        <mxCell id="1mVYOBVDLo1fgl-eQnJa-114" value="&lt;pre style=&quot;text-align: start; overflow-wrap: break-word; text-wrap-mode: wrap;&quot;&gt;Amer-Indian-Eskimo&lt;/pre&gt;" style="text;html=1;align=center;verticalAlign=middle;resizable=0;points=[];autosize=1;strokeColor=none;fillColor=none;" vertex="1" parent="1">
          <mxGeometry x="-235" y="160" width="140" height="50" as="geometry" />
        </mxCell>
        <mxCell id="1mVYOBVDLo1fgl-eQnJa-115" value="&lt;pre style=&quot;text-align: start; overflow-wrap: break-word; text-wrap-mode: wrap;&quot;&gt;Other&lt;/pre&gt;" style="text;html=1;align=center;verticalAlign=middle;resizable=0;points=[];autosize=1;strokeColor=none;fillColor=none;" vertex="1" parent="1">
          <mxGeometry x="-140" y="150" width="60" height="50" as="geometry" />
        </mxCell>
        <mxCell id="1mVYOBVDLo1fgl-eQnJa-116" value="&lt;pre style=&quot;text-align: start; overflow-wrap: break-word; text-wrap-mode: wrap;&quot;&gt;Black&lt;/pre&gt;" style="text;html=1;align=center;verticalAlign=middle;resizable=0;points=[];autosize=1;strokeColor=none;fillColor=none;" vertex="1" parent="1">
          <mxGeometry x="-260" y="160" width="60" height="50" as="geometry" />
        </mxCell>
        <mxCell id="1mVYOBVDLo1fgl-eQnJa-117" value="*" style="text;html=1;align=center;verticalAlign=middle;resizable=0;points=[];autosize=1;strokeColor=none;fillColor=none;" vertex="1" parent="1">
          <mxGeometry x="-265" y="110" width="30" height="30" as="geometry" />
        </mxCell>
        <mxCell id="1mVYOBVDLo1fgl-eQnJa-118" value="" style="endArrow=none;html=1;rounded=0;entryX=0.4;entryY=1.024;entryDx=0;entryDy=0;entryPerimeter=0;exitX=0.477;exitY=0.036;exitDx=0;exitDy=0;exitPerimeter=0;" edge="1" parent="1" source="1mVYOBVDLo1fgl-eQnJa-112" target="1mVYOBVDLo1fgl-eQnJa-117">
          <mxGeometry width="50" height="50" relative="1" as="geometry">
            <mxPoint x="10" y="369" as="sourcePoint" />
            <mxPoint x="32" y="320" as="targetPoint" />
          </mxGeometry>
        </mxCell>
        <mxCell id="1mVYOBVDLo1fgl-eQnJa-119" value="" style="endArrow=none;html=1;rounded=0;exitX=0.447;exitY=0.036;exitDx=0;exitDy=0;exitPerimeter=0;entryX=0.376;entryY=1.145;entryDx=0;entryDy=0;entryPerimeter=0;" edge="1" parent="1" source="1mVYOBVDLo1fgl-eQnJa-113" target="1mVYOBVDLo1fgl-eQnJa-117">
          <mxGeometry width="50" height="50" relative="1" as="geometry">
            <mxPoint x="-290" y="299" as="sourcePoint" />
            <mxPoint x="-268" y="250" as="targetPoint" />
          </mxGeometry>
        </mxCell>
        <mxCell id="1mVYOBVDLo1fgl-eQnJa-120" value="" style="endArrow=none;html=1;rounded=0;entryX=0.4;entryY=1.073;entryDx=0;entryDy=0;entryPerimeter=0;exitX=0.462;exitY=-0.022;exitDx=0;exitDy=0;exitPerimeter=0;" edge="1" parent="1" source="1mVYOBVDLo1fgl-eQnJa-115" target="1mVYOBVDLo1fgl-eQnJa-117">
          <mxGeometry width="50" height="50" relative="1" as="geometry">
            <mxPoint x="-270" y="289" as="sourcePoint" />
            <mxPoint x="-248" y="240" as="targetPoint" />
          </mxGeometry>
        </mxCell>
        <mxCell id="1mVYOBVDLo1fgl-eQnJa-121" value="" style="endArrow=none;html=1;rounded=0;entryX=0.4;entryY=1.024;entryDx=0;entryDy=0;entryPerimeter=0;" edge="1" parent="1" source="1mVYOBVDLo1fgl-eQnJa-116" target="1mVYOBVDLo1fgl-eQnJa-117">
          <mxGeometry width="50" height="50" relative="1" as="geometry">
            <mxPoint x="-260" y="319" as="sourcePoint" />
            <mxPoint x="-238" y="270" as="targetPoint" />
          </mxGeometry>
        </mxCell>
        <mxCell id="1mVYOBVDLo1fgl-eQnJa-122" value="" style="endArrow=none;html=1;rounded=0;entryX=0.352;entryY=0.952;entryDx=0;entryDy=0;entryPerimeter=0;exitX=0.446;exitY=-0.022;exitDx=0;exitDy=0;exitPerimeter=0;" edge="1" parent="1" source="1mVYOBVDLo1fgl-eQnJa-114" target="1mVYOBVDLo1fgl-eQnJa-117">
          <mxGeometry width="50" height="50" relative="1" as="geometry">
            <mxPoint x="-220" y="319" as="sourcePoint" />
            <mxPoint x="-198" y="270" as="targetPoint" />
            <Array as="points" />
          </mxGeometry>
        </mxCell>
      </root>
    </mxGraphModel>
  </diagram>
</mxfile>
